<?xml version="1.0" ?><svg height="32px" version="1.1" viewBox="0 0 32 32" width="32px" xmlns="http://www.w3.org/2000/svg" xmlns:xlink="http://www.w3.org/1999/xlink"><title/><desc/><defs/><g fill="none" fill-rule="evenodd" id="Page-1" stroke="none" stroke-width="1"><g id="number-1"><g id="Page-1" transform="translate(9.000000, 2.000000)"><path d="M9.1116,27.2244 C8.9846,26.2624 8.8816,24.5764 8.8816,23.4764 L8.8816,10.4894 C8.8816,9.3894 8.1396,8.9994 7.2336,9.6234 C7.2336,9.6234 3.5926,12.1294 2.4976,12.1294 C1.9746,12.1294 1.5116,11.9204 1.1066,11.5044 C0.7026,11.0874 0.4996,10.6044 0.4996,10.0574 C0.4996,9.4224 0.6996,8.9564 1.0976,8.6574 C1.4956,8.3584 2.1986,7.9724 3.2066,7.5004 C4.7126,6.7904 5.9166,6.0444 6.8186,5.2604 C7.7206,4.4764 8.5206,3.5984 9.2176,2.6284 C9.9146,1.6574 10.3686,1.0604 10.5796,0.8364 C10.7916,0.6124 11.1896,0.5004 11.7746,0.5004 C12.4346,0.5004 12.9636,0.7554 13.3616,1.2654 L13.7596,1.7754 C13.8696,2.6554 13.9586,4.2744 13.9586,5.3744 L13.9586,22.7484 C13.9586,23.8484 13.7596,25.6254 13.5156,26.6984 C13.5156,26.6984 13.1066,28.5004 11.4016,28.5004 C10.6426,28.5004 10.0326,28.2444 9.5716,27.7344 L9.1116,27.2244 Z" fill="#2FF489" id="Fill-1"/><path d="M9.1116,27.2244 C8.9846,26.2624 8.8816,24.5764 8.8816,23.4764 L8.8816,10.4894 C8.8816,9.3894 8.1396,8.9994 7.2336,9.6234 C7.2336,9.6234 3.5926,12.1294 2.4976,12.1294 C1.9746,12.1294 1.5116,11.9204 1.1066,11.5044 C0.7026,11.0874 0.4996,10.6044 0.4996,10.0574 C0.4996,9.4224 0.6996,8.9564 1.0976,8.6574 C1.4956,8.3584 2.1986,7.9724 3.2066,7.5004 C4.7126,6.7904 5.9166,6.0444 6.8186,5.2604 C7.7206,4.4764 8.5206,3.5984 9.2176,2.6284 C9.9146,1.6574 10.3686,1.0604 10.5796,0.8364 C10.7916,0.6124 11.1896,0.5004 11.7746,0.5004 C12.4346,0.5004 12.9636,0.7554 13.3616,1.2654 L13.7596,1.7754 C13.8696,2.6554 13.9586,4.2744 13.9586,5.3744 L13.9586,22.7484 C13.9586,23.8484 13.7596,25.6254 13.5156,26.6984 C13.5156,26.6984 13.1066,28.5004 11.4016,28.5004 C10.6426,28.5004 10.0326,28.2444 9.5716,27.7344 L9.1116,27.2244 L9.1116,27.2244 Z" id="Stroke-3" stroke="#09331B"/><path d="M3.8436,8.8584 C5.4686,8.0924 6.7996,7.2634 7.8026,6.3914" id="Stroke-5" stroke="#FFFFFF" stroke-dasharray="1,2,6,2,3" stroke-linecap="round" stroke-linejoin="round"/><path d="M11.4012,27 C10.7842,27 10.3082,26.804 9.9432,26.399 C9.5702,25.986 9.3812,25.339 9.3812,24.476 L9.3812,25.476 C9.3812,26.339 9.5702,26.986 9.9432,27.399 C10.3082,27.804 10.7842,28 11.4012,28 C12.2842,28 13.4592,27.663 13.4592,24.748 L13.4592,23.748 C13.4592,26.663 12.2842,27 11.4012,27" fill="#332E09" id="Fill-7" opacity="0.203766325"/></g></g></g></svg>