<?xml version="1.0" ?><svg height="32px" version="1.1" viewBox="0 0 32 32" width="32px" xmlns="http://www.w3.org/2000/svg" xmlns:xlink="http://www.w3.org/1999/xlink"><title/><desc/><defs/><g fill="none" fill-rule="evenodd" id="Page-1" stroke="none" stroke-width="1"><g id="number-2"><g id="Page-1" transform="translate(6.000000, 2.000000)"><path d="M7.3434,23.5739 C7.1714,23.8189 7.9304,24.0199 9.0304,24.0199 L14.9394,24.0199 C16.0394,24.0199 17.7224,24.1109 18.6794,24.2229 L19.1984,24.6279 C19.7174,25.0329 19.9764,25.5829 19.9764,26.2789 C19.9764,26.8989 19.7714,27.4239 19.3594,27.8549 L18.9484,28.2849 C18.1464,28.4029 16.5894,28.4999 15.4894,28.4999 L5.5184,28.4999 C4.4184,28.4999 2.7584,28.3819 1.8284,28.2369 L1.2974,27.7119 C0.7654,27.1869 0.5004,26.5699 0.5004,25.8609 C0.5004,25.4059 0.6704,24.8019 1.0124,24.0489 L1.3544,23.2959 C1.7824,22.7339 2.7644,21.6329 3.5374,20.8499 C3.5374,20.8499 5.3344,19.0309 6.6884,17.7839 L8.0424,16.5379 C8.8954,15.8709 10.3044,14.7749 11.1744,14.1019 C11.1744,14.1019 11.4944,13.8549 12.1844,13.1139 C12.8734,12.3739 13.3994,11.6149 13.7594,10.8359 C14.1204,10.0579 14.3004,9.2959 14.3004,8.5489 C14.3004,7.7389 14.1074,7.0139 13.7214,6.3749 C13.3354,5.7359 12.8104,5.2399 12.1464,4.8849 C11.4814,4.5309 10.7574,4.3539 9.9724,4.3539 C8.3144,4.3539 7.4984,5.1449 7.4984,5.1449 C6.7084,5.9099 5.9094,6.8559 5.7234,7.2449 L5.4264,8.0929 C5.1284,8.9409 4.7934,9.5929 4.4204,10.0489 C4.0464,10.5039 3.4994,10.7319 2.7784,10.7319 C2.1454,10.7319 1.6204,10.5229 1.2024,10.1059 C0.7844,9.6879 0.5764,9.1179 0.5764,8.3969 C0.5764,7.5239 0.7724,6.6129 1.1644,5.6629 C1.5564,4.7139 2.1424,3.8539 2.9204,3.0819 C3.6984,2.3099 4.6854,1.6869 5.8814,1.2119 C7.0774,0.7369 8.4794,0.4999 10.0864,0.4999 C12.0224,0.4999 13.6744,0.8039 15.0414,1.4109 C15.9274,1.8159 16.7054,2.3729 17.3764,3.0819 C18.0464,3.7899 18.5684,4.6099 18.9424,5.5399 C19.3154,6.4699 19.5024,7.4349 19.5024,8.4349 C19.5024,10.0039 19.1134,11.4309 18.3344,12.7159 C17.5564,13.9999 16.7624,15.0059 15.9524,15.7339 C15.1424,16.4619 13.7854,17.6039 11.8804,19.1599 C9.9754,20.7169 9.3554,21.3529 9.3554,21.3529 C8.5884,22.1409 7.5154,23.3289 7.3434,23.5739" fill="#2FF489" id="Fill-1"/><path d="M7.3434,23.5739 C7.1714,23.8189 7.9304,24.0199 9.0304,24.0199 L14.9394,24.0199 C16.0394,24.0199 17.7224,24.1109 18.6794,24.2229 L19.1984,24.6279 C19.7174,25.0329 19.9764,25.5829 19.9764,26.2789 C19.9764,26.8989 19.7714,27.4239 19.3594,27.8549 L18.9484,28.2849 C18.1464,28.4029 16.5894,28.4999 15.4894,28.4999 L5.5184,28.4999 C4.4184,28.4999 2.7584,28.3819 1.8284,28.2369 L1.2974,27.7119 C0.7654,27.1869 0.5004,26.5699 0.5004,25.8609 C0.5004,25.4059 0.6704,24.8019 1.0124,24.0489 L1.3544,23.2959 C1.7824,22.7339 2.7644,21.6329 3.5374,20.8499 C3.5374,20.8499 5.3344,19.0309 6.6884,17.7839 L8.0424,16.5379 C8.8954,15.8709 10.3044,14.7749 11.1744,14.1019 C11.1744,14.1019 11.4944,13.8549 12.1844,13.1139 C12.8734,12.3739 13.3994,11.6149 13.7594,10.8359 C14.1204,10.0579 14.3004,9.2959 14.3004,8.5489 C14.3004,7.7389 14.1074,7.0139 13.7214,6.3749 C13.3354,5.7359 12.8104,5.2399 12.1464,4.8849 C11.4814,4.5309 10.7574,4.3539 9.9724,4.3539 C8.3144,4.3539 7.4984,5.1449 7.4984,5.1449 C6.7084,5.9099 5.9094,6.8559 5.7234,7.2449 L5.4264,8.0929 C5.1284,8.9409 4.7934,9.5929 4.4204,10.0489 C4.0464,10.5039 3.4994,10.7319 2.7784,10.7319 C2.1454,10.7319 1.6204,10.5229 1.2024,10.1059 C0.7844,9.6879 0.5764,9.1179 0.5764,8.3969 C0.5764,7.5239 0.7724,6.6129 1.1644,5.6629 C1.5564,4.7139 2.1424,3.8539 2.9204,3.0819 C3.6984,2.3099 4.6854,1.6869 5.8814,1.2119 C7.0774,0.7369 8.4794,0.4999 10.0864,0.4999 C12.0224,0.4999 13.6744,0.8039 15.0414,1.4109 C15.9274,1.8159 16.7054,2.3729 17.3764,3.0819 C18.0464,3.7899 18.5684,4.6099 18.9424,5.5399 C19.3154,6.4699 19.5024,7.4349 19.5024,8.4349 C19.5024,10.0039 19.1134,11.4309 18.3344,12.7159 C17.5564,13.9999 16.7624,15.0059 15.9524,15.7339 C15.1424,16.4619 13.7854,17.6039 11.8804,19.1599 C9.9754,20.7169 9.3554,21.3529 9.3554,21.3529 C8.5884,22.1409 7.5154,23.3289 7.3434,23.5739 L7.3434,23.5739 Z" id="Stroke-3" stroke="#09331B"/><path d="M3.9768,4.1458 C4.6058,3.5218 5.4338,3.0038 6.4348,2.6068 C7.4488,2.2048 8.6778,1.9998 10.0868,1.9998" id="Stroke-5" stroke="#FFFFFF" stroke-dasharray="1,2,6,2,3" stroke-linecap="round" stroke-linejoin="round"/><path d="M19.4041,25.7861 C19.3301,26.0551 19.2001,26.2971 18.9981,26.5091 C18.6861,26.8351 18.1791,27.0001 17.4901,27.0001 L3.5181,27.0001 C2.6981,27.0001 2.0871,26.7891 1.6491,26.3571 C1.3481,26.0591 1.1621,25.7321 1.0701,25.3721 C1.0211,25.5811 1.0001,25.7481 1.0001,25.8611 C1.0001,26.4361 1.2121,26.9251 1.6491,27.3571 C2.0871,27.7891 2.6981,28.0001 3.5181,28.0001 L17.4901,28.0001 C18.1791,28.0001 18.6861,27.8351 18.9981,27.5091 C19.3201,27.1721 19.4771,26.7701 19.4771,26.2781 C19.4771,26.0991 19.4471,25.9381 19.4041,25.7861" fill="#332E09" id="Fill-7" opacity="0.203766325"/></g></g></g></svg>