<?xml version="1.0" ?><svg height="32px" version="1.1" viewBox="0 0 32 32" width="32px" xmlns="http://www.w3.org/2000/svg" xmlns:xlink="http://www.w3.org/1999/xlink"><title/><desc/><defs/><g fill="none" fill-rule="evenodd" id="Page-1" stroke="none" stroke-width="1"><g id="number-4"><g id="Page-1" transform="translate(5.000000, 2.000000)"><path d="M6.5481,16.4712 C5.8941,17.3552 6.2581,18.0792 7.3581,18.0792 L11.3321,18.0792 C12.4321,18.0792 13.3321,17.1792 13.3321,16.0792 L13.3321,9.3052 C13.3321,8.2052 12.7961,8.0292 12.1421,8.9132 L6.5481,16.4712 Z M13.5451,27.3102 C13.4281,26.4142 13.3321,24.9052 13.3321,23.9572 C13.3321,23.0082 12.4321,22.2322 11.3321,22.2322 L6.0231,22.2322 C4.9231,22.2322 3.1311,22.1172 2.0401,21.9762 C2.0401,21.9762 1.9681,21.9662 1.3811,21.4352 C0.7941,20.9032 0.5001,20.1802 0.5001,19.2652 C0.5001,19.0302 0.5431,18.7932 0.6301,18.5512 C0.7161,18.3102 0.8461,18.0572 1.0191,17.7912 C1.1921,17.5252 1.3711,17.2692 1.5571,17.0222 L1.7421,16.7742 C2.0181,16.4112 2.7821,15.3922 3.4401,14.5112 L10.8731,4.5682 C11.5321,3.6872 12.5981,2.2942 13.2421,1.4732 L13.6561,1.0842 C14.0701,0.6942 14.5681,0.5002 15.1491,0.5002 C17.0281,0.5002 17.4081,1.8062 17.4081,1.8062 C17.7161,2.8622 17.9671,4.6262 17.9671,5.7262 L17.9671,16.0792 C17.9671,17.1792 18.1471,18.0792 18.3661,18.0792 C18.5851,18.0792 19.5371,18.1372 20.4801,18.2082 L21.0551,18.4682 C21.6301,18.7282 21.9171,19.2962 21.9171,20.1742 C21.9171,20.8912 21.6821,21.4132 21.2131,21.7412 L20.7431,22.0682 C19.8381,22.1592 18.8441,22.2322 18.5331,22.2322 C18.2221,22.2322 17.9671,23.0082 17.9671,23.9572 C17.9671,24.9052 17.8731,26.4282 17.7571,27.3412 L17.3371,27.8042 C16.9171,28.2682 16.3541,28.5002 15.6501,28.5002 C14.9571,28.5002 14.3981,28.2622 13.9711,27.7862 L13.5451,27.3102 Z" fill="#2FF489" id="Fill-1"/><path d="M6.5481,16.4712 C5.8941,17.3552 6.2581,18.0792 7.3581,18.0792 L11.3321,18.0792 C12.4321,18.0792 13.3321,17.1792 13.3321,16.0792 L13.3321,9.3052 C13.3321,8.2052 12.7961,8.0292 12.1421,8.9132 L6.5481,16.4712 L6.5481,16.4712 Z M13.5451,27.3102 C13.4281,26.4142 13.3321,24.9052 13.3321,23.9572 C13.3321,23.0082 12.4321,22.2322 11.3321,22.2322 L6.0231,22.2322 C4.9231,22.2322 3.1311,22.1172 2.0401,21.9762 C2.0401,21.9762 1.9681,21.9662 1.3811,21.4352 C0.7941,20.9032 0.5001,20.1802 0.5001,19.2652 C0.5001,19.0302 0.5431,18.7932 0.6301,18.5512 C0.7161,18.3102 0.8461,18.0572 1.0191,17.7912 C1.1921,17.5252 1.3711,17.2692 1.5571,17.0222 L1.7421,16.7742 C2.0181,16.4112 2.7821,15.3922 3.4401,14.5112 L10.8731,4.5682 C11.5321,3.6872 12.5981,2.2942 13.2421,1.4732 L13.6561,1.0842 C14.0701,0.6942 14.5681,0.5002 15.1491,0.5002 C17.0281,0.5002 17.4081,1.8062 17.4081,1.8062 C17.7161,2.8622 17.9671,4.6262 17.9671,5.7262 L17.9671,16.0792 C17.9671,17.1792 18.1471,18.0792 18.3661,18.0792 C18.5851,18.0792 19.5371,18.1372 20.4801,18.2082 L21.0551,18.4682 C21.6301,18.7282 21.9171,19.2962 21.9171,20.1742 C21.9171,20.8912 21.6821,21.4132 21.2131,21.7412 L20.7431,22.0682 C19.8381,22.1592 18.8441,22.2322 18.5331,22.2322 C18.2221,22.2322 17.9671,23.0082 17.9671,23.9572 C17.9671,24.9052 17.8731,26.4282 17.7571,27.3412 L17.3371,27.8042 C16.9171,28.2682 16.3541,28.5002 15.6501,28.5002 C14.9571,28.5002 14.3981,28.2622 13.9711,27.7862 L13.5451,27.3102 L13.5451,27.3102 Z" id="Stroke-3" stroke="#09331B"/><path d="M15.6496,27 C15.1016,27 14.6746,26.821 14.3436,26.452 C14.0036,26.073 13.8316,25.478 13.8316,24.682 L13.8316,25.682 C13.8316,26.478 14.0036,27.073 14.3436,27.452 C14.6746,27.821 15.1016,28 15.6496,28 C16.2116,28 16.6426,27.826 16.9666,27.469 C17.2986,27.103 17.4676,26.501 17.4676,25.682 L17.4676,24.682 C17.4676,25.501 17.2986,26.103 16.9666,26.469 C16.6426,26.826 16.2116,27 15.6496,27" fill="#332E09" id="Fill-5" opacity="0.203766325"/><path d="M12.1282,5.3555 L7.8782,10.9805" id="Stroke-7" stroke="#FFFFFF" stroke-dasharray="1,2,6,2,3" stroke-linecap="round" stroke-linejoin="round"/></g></g></g></svg>