<?xml version="1.0" ?><svg height="32px" version="1.1" viewBox="0 0 32 32" width="32px" xmlns="http://www.w3.org/2000/svg" xmlns:xlink="http://www.w3.org/1999/xlink"><title/><desc/><defs/><g fill="none" fill-rule="evenodd" id="Page-1" stroke="none" stroke-width="1"><g id="number-5"><g id="Page-1" transform="translate(6.000000, 2.000000)"><path d="M18.0245,4.747 C17.1225,4.858 15.4835,4.949 14.3835,4.949 L9.3915,4.949 C8.2915,4.949 7.2355,5.835 7.0445,6.919 L6.6585,9.113 C6.4685,10.196 7.1425,10.736 8.1575,10.312 C8.1575,10.312 9.7575,9.644 11.2725,9.644 C12.4835,9.644 13.6165,9.871 14.6705,10.326 C15.7245,10.78 16.6485,11.408 17.4435,12.209 C18.2395,13.011 18.8635,13.96 19.3185,15.058 C19.7725,16.157 19.9995,17.337 19.9995,18.599 C19.9995,20.429 19.5895,22.095 18.7695,23.597 C17.9485,25.099 16.7655,26.291 15.2195,27.175 C13.6735,28.058 11.8905,28.5 9.8715,28.5 C7.6125,28.5 5.7785,28.083 4.3715,27.25 C2.9645,26.418 1.9675,25.461 1.3805,24.382 C0.7935,23.303 0.5005,22.36 0.5005,21.552 C0.5005,21.06 0.7055,20.593 1.1155,20.151 C1.5255,19.709 2.0395,19.489 2.6585,19.489 C3.7185,19.489 4.5075,20.101 5.0245,21.325 C5.5295,22.448 6.2115,23.322 7.0695,23.947 C7.9275,24.572 8.8865,24.884 9.9465,24.884 C10.9185,24.884 11.7705,24.632 12.5025,24.127 C13.2345,23.622 13.7995,22.928 14.1975,22.044 C14.5945,21.161 14.7935,20.157 14.7935,19.034 C14.7935,17.823 14.5785,16.788 14.1495,15.929 C13.7205,15.071 13.1465,14.431 12.4275,14.008 C11.7075,13.585 10.9065,13.374 10.0225,13.374 C8.9375,13.374 8.1615,13.506 7.6945,13.771 C7.2275,14.036 6.5555,14.5 5.6775,15.163 C4.8005,15.825 4.0785,16.157 3.5105,16.157 C2.8915,16.157 2.3425,15.932 1.8635,15.484 C1.3835,15.036 1.1435,14.528 1.1435,13.96 L1.1435,13.897 C1.2585,13.224 1.5075,11.787 1.6975,10.703 L2.5965,5.575 C2.7865,4.491 3.1695,2.761 3.4475,1.731 L3.9265,1.238 L4.4065,0.746 C5.4335,0.611 7.1745,0.5 8.2745,0.5 L14.2705,0.5 C15.3705,0.5 17.1425,0.722 18.2085,0.993 C18.2085,0.993 19.2235,1.251 19.2235,2.753 C19.2235,3.409 18.9835,3.939 18.5045,4.343 L18.0245,4.747 Z" fill="#2FF489" id="Fill-1"/><path d="M18.0245,4.747 C17.1225,4.858 15.4835,4.949 14.3835,4.949 L9.3915,4.949 C8.2915,4.949 7.2355,5.835 7.0445,6.919 L6.6585,9.113 C6.4685,10.196 7.1425,10.736 8.1575,10.312 C8.1575,10.312 9.7575,9.644 11.2725,9.644 C12.4835,9.644 13.6165,9.871 14.6705,10.326 C15.7245,10.78 16.6485,11.408 17.4435,12.209 C18.2395,13.011 18.8635,13.96 19.3185,15.058 C19.7725,16.157 19.9995,17.337 19.9995,18.599 C19.9995,20.429 19.5895,22.095 18.7695,23.597 C17.9485,25.099 16.7655,26.291 15.2195,27.175 C13.6735,28.058 11.8905,28.5 9.8715,28.5 C7.6125,28.5 5.7785,28.083 4.3715,27.25 C2.9645,26.418 1.9675,25.461 1.3805,24.382 C0.7935,23.303 0.5005,22.36 0.5005,21.552 C0.5005,21.06 0.7055,20.593 1.1155,20.151 C1.5255,19.709 2.0395,19.489 2.6585,19.489 C3.7185,19.489 4.5075,20.101 5.0245,21.325 C5.5295,22.448 6.2115,23.322 7.0695,23.947 C7.9275,24.572 8.8865,24.884 9.9465,24.884 C10.9185,24.884 11.7705,24.632 12.5025,24.127 C13.2345,23.622 13.7995,22.928 14.1975,22.044 C14.5945,21.161 14.7935,20.157 14.7935,19.034 C14.7935,17.823 14.5785,16.788 14.1495,15.929 C13.7205,15.071 13.1465,14.431 12.4275,14.008 C11.7075,13.585 10.9065,13.374 10.0225,13.374 C8.9375,13.374 8.1615,13.506 7.6945,13.771 C7.2275,14.036 6.5555,14.5 5.6775,15.163 C4.8005,15.825 4.0785,16.157 3.5105,16.157 C2.8915,16.157 2.3425,15.932 1.8635,15.484 C1.3835,15.036 1.1435,14.528 1.1435,13.96 L1.1435,13.897 C1.2585,13.224 1.5075,11.787 1.6975,10.703 L2.5965,5.575 C2.7865,4.491 3.1695,2.761 3.4475,1.731 L3.9265,1.238 L4.4065,0.746 C5.4335,0.611 7.1745,0.5 8.2745,0.5 L14.2705,0.5 C15.3705,0.5 17.1425,0.722 18.2085,0.993 C18.2085,0.993 19.2235,1.251 19.2235,2.753 C19.2235,3.409 18.9835,3.939 18.5045,4.343 L18.0245,4.747 L18.0245,4.747 Z" id="Stroke-3" stroke="#09331B"/><path d="M19.474,18.0427 C19.412,19.6067 19.039,21.0597 18.331,22.3577 C17.559,23.7687 16.429,24.9077 14.971,25.7407 C13.509,26.5757 11.794,26.9997 9.871,26.9997 C7.713,26.9997 5.948,26.6037 4.627,25.8207 C3.304,25.0377 2.36,24.1377 1.82,23.1437 C1.424,22.4157 1.174,21.7577 1.065,21.1757 C1.026,21.2997 1,21.4247 1,21.5517 C1,22.2717 1.276,23.1437 1.82,24.1437 C2.36,25.1377 3.304,26.0377 4.627,26.8207 C5.948,27.6037 7.713,27.9997 9.871,27.9997 C11.794,27.9997 13.509,27.5757 14.971,26.7407 C16.429,25.9077 17.559,24.7687 18.331,23.3577 C19.106,21.9367 19.5,20.3357 19.5,18.5987 C19.5,18.4107 19.485,18.2277 19.474,18.0427" fill="#332E09" id="Fill-5" opacity="0.203766325"/><path d="M7.9196,1.8242 L16.0756,1.8242" id="Stroke-7" stroke="#FFFFFF" stroke-dasharray="1,2,6,2,3" stroke-linecap="round" stroke-linejoin="round"/></g></g></g></svg>