<?xml version="1.0" ?><svg height="32px" version="1.1" viewBox="0 0 32 32" width="32px" xmlns="http://www.w3.org/2000/svg" xmlns:xlink="http://www.w3.org/1999/xlink"><title/><desc/><defs/><g fill="none" fill-rule="evenodd" id="Page-1" stroke="none" stroke-width="1"><g id="number-7"><g id="Page-1" transform="translate(6.000000, 2.000000)"><path d="M1.8902,0.6264 C2.8672,0.5564 4.5662,0.5004 5.6662,0.5004 L14.2912,0.5004 C15.3912,0.5004 17.1882,0.5814 18.2832,0.6804 C18.2832,0.6804 18.3832,0.6894 18.9262,1.0684 C19.4702,1.4474 19.7422,2.0734 19.7422,2.9454 C19.7422,3.4764 19.4222,4.1774 18.7842,5.0494 C18.1462,5.9214 17.4192,6.8854 16.6042,7.9404 C15.7892,8.9964 14.9482,10.3074 14.0832,11.8744 C13.2172,13.4414 12.3852,15.7384 12.3852,15.7384 C12.0102,16.7724 11.4702,18.4404 11.1852,19.4444 L11.0592,20.1024 C10.9332,20.7594 10.7942,21.6124 10.6422,22.6614 L10.4902,23.7104 C10.3552,24.4574 9.9902,25.9324 9.6802,26.9874 C9.6802,26.9874 9.6022,27.2524 9.1162,27.7514 C8.6292,28.2504 7.9822,28.5004 7.1732,28.5004 C6.4022,28.5004 5.7832,28.2314 5.3152,27.6944 C4.8472,27.1574 4.6142,26.3644 4.6142,25.3154 C4.6142,24.5064 4.7842,23.4064 5.1252,22.0164 C5.4672,20.6264 6.0232,18.9614 6.7942,17.0214 C7.5652,15.0814 8.5282,13.0904 9.6852,11.0494 C10.8412,9.0084 12.6272,6.5694 12.6272,6.5694 C13.2762,5.6814 12.9082,4.9554 11.8082,4.9554 L5.6662,4.9554 C4.5662,4.9554 2.8312,4.8684 1.8112,4.7624 L1.2872,4.3764 C0.7622,3.9914 0.5002,3.3874 0.5002,2.5664 C0.5002,1.6944 0.7782,1.1324 1.3342,0.8794 L1.8902,0.6264 Z" fill="#2FF489" id="Fill-1"/><path d="M1.8902,0.6264 C2.8672,0.5564 4.5662,0.5004 5.6662,0.5004 L14.2912,0.5004 C15.3912,0.5004 17.1882,0.5814 18.2832,0.6804 C18.2832,0.6804 18.3832,0.6894 18.9262,1.0684 C19.4702,1.4474 19.7422,2.0734 19.7422,2.9454 C19.7422,3.4764 19.4222,4.1774 18.7842,5.0494 C18.1462,5.9214 17.4192,6.8854 16.6042,7.9404 C15.7892,8.9964 14.9482,10.3074 14.0832,11.8744 C13.2172,13.4414 12.3852,15.7384 12.3852,15.7384 C12.0102,16.7724 11.4702,18.4404 11.1852,19.4444 L11.0592,20.1024 C10.9332,20.7594 10.7942,21.6124 10.6422,22.6614 L10.4902,23.7104 C10.3552,24.4574 9.9902,25.9324 9.6802,26.9874 C9.6802,26.9874 9.6022,27.2524 9.1162,27.7514 C8.6292,28.2504 7.9822,28.5004 7.1732,28.5004 C6.4022,28.5004 5.7832,28.2314 5.3152,27.6944 C4.8472,27.1574 4.6142,26.3644 4.6142,25.3154 C4.6142,24.5064 4.7842,23.4064 5.1252,22.0164 C5.4672,20.6264 6.0232,18.9614 6.7942,17.0214 C7.5652,15.0814 8.5282,13.0904 9.6852,11.0494 C10.8412,9.0084 12.6272,6.5694 12.6272,6.5694 C13.2762,5.6814 12.9082,4.9554 11.8082,4.9554 L5.6662,4.9554 C4.5662,4.9554 2.8312,4.8684 1.8112,4.7624 L1.2872,4.3764 C0.7622,3.9914 0.5002,3.3874 0.5002,2.5664 C0.5002,1.6944 0.7782,1.1324 1.3342,0.8794 L1.8902,0.6264 L1.8902,0.6264 Z" id="Stroke-3" stroke="#09331B"/><path d="M8.7576,26.4027 C8.2506,26.8617 7.8476,27.0007 7.1726,27.0007 C6.5476,27.0007 6.0646,26.7937 5.6926,26.3667 C5.3776,26.0057 5.1976,25.4687 5.1406,24.7827 C5.1256,24.9707 5.1136,25.1537 5.1136,25.3147 C5.1136,26.2357 5.3086,26.9257 5.6926,27.3667 C6.0646,27.7937 6.5476,28.0007 7.1726,28.0007 C7.8476,28.0007 8.3656,27.8047 8.7576,27.4027 C9.1746,26.9747 9.5096,26.1567 9.7536,24.9677 C9.8636,24.4337 9.9926,23.6557 10.1476,22.5897 C10.1476,22.5897 9.5336,25.8567 8.7576,26.4027" fill="#332E09" id="Fill-5" opacity="0.203766325"/><path d="M3.8504,1.9994 L14.1634,1.9994" id="Stroke-7" stroke="#FFFFFF" stroke-dasharray="1,2,6,2,3" stroke-linecap="round" stroke-linejoin="round"/></g></g></g></svg>